<?xml version="1.0" standalone="no"?>
<!DOCTYPE svg PUBLIC "-//W3C//DTD SVG 20010904//EN"
 "http://www.w3.org/TR/2001/REC-SVG-20010904/DTD/svg10.dtd">
<svg version="1.0" xmlns="http://www.w3.org/2000/svg"
 width="640.000000pt" height="1280.000000pt" viewBox="0 0 640.000000 1280.000000"
 preserveAspectRatio="xMidYMid meet">
<g transform="translate(0.000000,1280.000000) scale(0.100000,-0.100000)"
fill="#000000" stroke="none">
<path d="M4340 12789 c-13 -6 -81 -14 -150 -19 -149 -11 -243 -36 -368 -96
-194 -94 -314 -269 -329 -481 -4 -49 -1 -107 6 -145 15 -72 98 -271 140 -332
42 -60 111 -121 178 -154 32 -17 68 -41 80 -54 29 -31 53 -90 53 -130 0 -36
-59 -179 -86 -209 -9 -10 -42 -23 -73 -30 -110 -22 -159 -41 -207 -81 -95 -79
-107 -82 -324 -89 -147 -4 -206 -10 -239 -23 -25 -9 -81 -25 -125 -36 -130
-32 -216 -80 -310 -173 -95 -94 -131 -112 -315 -162 -207 -56 -305 -91 -436
-155 -127 -62 -203 -113 -341 -235 -47 -41 -112 -89 -143 -106 -91 -51 -91
-52 -91 -137 l0 -75 133 -261 c74 -144 160 -306 191 -361 89 -155 329 -467
477 -619 125 -130 129 -136 129 -178 0 -52 -50 -273 -86 -382 -22 -64 -25 -90
-20 -138 6 -62 7 -61 -47 -72 -41 -9 -46 -35 -12 -63 22 -19 35 -23 60 -19 17
4 67 -1 111 -10 56 -12 97 -14 144 -9 79 9 123 9 173 0 51 -10 73 12 123 118
46 99 53 165 30 289 -9 48 -20 140 -25 205 -14 173 -53 263 -184 421 -83 100
-179 246 -227 347 -21 44 -57 141 -80 215 -24 74 -59 178 -80 230 -69 174 -64
190 61 209 188 30 372 82 474 133 28 14 74 33 104 42 116 34 118 32 141 -189
52 -490 71 -842 59 -1075 -4 -80 -22 -255 -39 -390 -17 -135 -41 -357 -54
-495 -21 -230 -25 -254 -51 -305 -24 -48 -29 -71 -36 -185 -4 -71 -19 -204
-34 -295 -14 -91 -29 -214 -31 -275 -5 -96 -2 -123 20 -208 31 -121 115 -333
161 -409 19 -31 35 -65 35 -77 0 -30 -104 -421 -138 -521 -16 -47 -50 -135
-76 -197 -25 -62 -61 -166 -80 -231 -19 -66 -81 -238 -139 -383 -110 -276
-151 -399 -187 -561 -17 -78 -27 -102 -47 -118 -14 -11 -31 -20 -38 -20 -24 0
-99 -86 -174 -202 -42 -65 -112 -172 -156 -238 -136 -206 -145 -222 -175 -320
-50 -162 -79 -299 -100 -475 -19 -159 -25 -184 -96 -395 -171 -507 -240 -665
-332 -758 -51 -53 -82 -71 -306 -182 -282 -139 -323 -170 -350 -261 -33 -111
-14 -204 55 -258 21 -18 61 -64 88 -104 98 -145 182 -226 278 -268 43 -18 64
-44 56 -67 -13 -35 10 -85 67 -146 46 -48 60 -71 60 -94 0 -26 11 -38 82 -91
46 -33 101 -66 123 -71 63 -17 65 -18 75 -44 6 -16 20 -28 37 -32 15 -3 41
-10 57 -15 58 -18 152 -9 380 37 127 26 139 31 162 77 27 52 21 78 -36 150
-44 54 -60 68 -89 72 -68 11 -76 16 -135 70 -52 46 -60 59 -60 89 0 27 8 45
35 72 l34 35 0 127 c1 70 5 154 9 188 7 51 5 66 -12 100 -11 22 -28 69 -37
105 -9 35 -23 71 -31 80 -25 27 -15 93 37 261 69 217 129 357 248 575 221 405
290 496 346 455 17 -12 136 -191 150 -225 15 -37 24 -211 12 -243 -5 -16 0
-28 22 -51 27 -29 29 -34 20 -72 -5 -23 -6 -53 -3 -66 7 -27 57 -75 78 -75 7
0 21 -9 31 -20 15 -17 16 -24 7 -46 -26 -56 -16 -85 52 -149 41 -37 72 -77 85
-106 15 -38 29 -52 71 -75 35 -19 58 -40 70 -65 29 -56 100 -84 217 -84 88 0
93 1 123 30 30 28 32 33 28 90 -3 51 -13 76 -67 172 -78 138 -85 177 -48 261
22 50 26 77 31 215 9 206 16 239 80 377 30 63 59 133 65 155 14 51 14 102 0
110 -5 4 -14 18 -20 32 -8 20 -1 39 37 111 38 71 67 107 157 196 234 229 373
330 752 546 138 78 313 186 390 240 208 146 300 201 506 305 102 52 208 111
235 133 59 47 132 150 210 296 49 92 58 118 62 175 12 179 -85 365 -522 991
-245 353 -261 372 -407 510 -184 174 -212 231 -178 366 14 54 40 74 95 74 59
0 82 23 95 95 17 91 6 302 -22 413 -20 82 -21 99 -10 135 6 23 36 137 66 252
30 116 69 255 88 310 59 169 137 369 150 383 18 17 29 6 122 -116 105 -139
126 -155 188 -149 61 5 146 62 199 132 49 64 221 403 242 475 25 86 33 140 56
365 15 148 31 248 55 340 32 126 33 137 37 365 1 129 -1 286 -6 347 -9 111 -9
113 -41 137 -19 15 -36 40 -44 66 -11 39 -18 44 -89 78 -73 35 -82 37 -181 37
-104 1 -104 1 -125 30 -45 62 -112 128 -177 171 -88 58 -268 143 -390 183 -52
17 -104 38 -116 46 -32 22 -53 77 -53 138 0 59 49 243 75 284 11 16 72 52 173
101 113 56 161 84 170 102 17 34 6 263 -15 304 -11 21 -13 44 -8 87 5 46 3 65
-9 84 -24 37 -19 60 19 89 58 44 50 67 -61 189 -81 89 -93 114 -75 162 26 72
14 102 -78 198 -42 43 -45 51 -43 93 2 54 -6 71 -65 141 -53 62 -101 83 -187
83 -42 0 -81 7 -111 20 -50 21 -105 25 -145 9z m1235 -2639 c0 -9 -11 -16 -27
-18 -27 -3 -38 14 -21 32 12 12 48 2 48 -14z m21 -468 c37 -24 48 -103 36
-260 -11 -140 -26 -175 -70 -170 -31 3 -35 15 -52 135 -12 82 -12 83 14 113
22 27 26 41 26 99 0 76 15 104 46 83z m-1389 -4698 c32 -14 87 -37 123 -50 86
-33 219 -122 227 -152 12 -48 -9 -67 -114 -103 -278 -96 -480 -290 -706 -679
-81 -138 -164 -236 -361 -422 -234 -223 -337 -290 -492 -323 -87 -18 -116 -19
-159 -1 -29 13 -35 20 -35 46 0 65 76 158 215 263 200 152 244 203 315 371 65
154 123 242 196 298 33 25 107 96 165 157 77 81 113 111 130 111 52 0 84 34
148 156 35 65 82 146 105 179 24 33 51 76 61 95 43 87 83 99 182 54z"/>
</g>
</svg>
